HIERARCHY
ROOT SpineBase
{
  OFFSET 0.000000 0.000000 0.000000
  CHANNELS 6 Xposition Yposition Zposition Zrotation Xrotation Yrotation
  JOINT SpineMid
  {
    OFFSET 0.000000 29.193499 0.000000
    CHANNELS 3 Zrotation Xrotation Yrotation
    JOINT SpineShoulder
    {
      OFFSET -0.041361 21.628698 -0.665872
      CHANNELS 3 Zrotation Xrotation Yrotation
      JOINT Neck
      {
        OFFSET -0.023653 7.163071 -0.530970
        CHANNELS 3 Zrotation Xrotation Yrotation
        JOINT Head
        {
          OFFSET -2.982438 12.784845 0.443908
          CHANNELS 3 Zrotation Xrotation Yrotation
          End Site
          {
            OFFSET 0 0 0
          }
        }
      }
      JOINT ShoulderLeft
      {
        OFFSET -14.211620 -3.795869 7.298226
        CHANNELS 3 Zrotation Xrotation Yrotation
        JOINT ElbowLeft
        {
          OFFSET -0.463165 -24.521330 -2.526783
          CHANNELS 3 Zrotation Xrotation Yrotation
          JOINT WristLeft
          {
            OFFSET -0.903734 -20.192644 3.840449
            CHANNELS 3 Zrotation Xrotation Yrotation
            JOINT HandLeft
            {
              OFFSET 0.930250 -7.463741 -0.954291
              CHANNELS 3 Zrotation Xrotation Yrotation
              JOINT HandTipLeft
              {
                OFFSET 0.188593 -7.018635 -0.305440
                CHANNELS 3 Zrotation Xrotation Yrotation
                End Site
                {
                  OFFSET 0 0 0
                }
              }
              JOINT ThumbLeft
              {
                OFFSET -1.965217 0.830223 -0.378644
                CHANNELS 3 Zrotation Xrotation Yrotation
                End Site
                {
                  OFFSET 0 0 0
                }
              }
            }
          }
        }
      }
      JOINT ShoulderRight
      {
        OFFSET 10.313331 -3.749082 -11.386846
        CHANNELS 3 Zrotation Xrotation Yrotation
        JOINT ElbowRight
        {
          OFFSET 6.952232 -22.017574 -1.282416
          CHANNELS 3 Zrotation Xrotation Yrotation
          JOINT WristRight
          {
            OFFSET -0.799094 -20.622409 -4.866173
            CHANNELS 3 Zrotation Xrotation Yrotation
            JOINT HandRight
            {
              OFFSET -1.607855 -6.946548 -0.080067
              CHANNELS 3 Zrotation Xrotation Yrotation
              JOINT HandTipRight
              {
                OFFSET -0.402812 -6.436483 0.137356
                CHANNELS 3 Zrotation Xrotation Yrotation
                End Site
                {
                  OFFSET 0 0 0
                }
              }
              JOINT ThumbRight
              {
                OFFSET 3.150241 0.436281 -1.247401
                CHANNELS 3 Zrotation Xrotation Yrotation
                End Site
                {
                  OFFSET 0 0 0
                }
              }
            }
          }
        }
      }
    }
  }
  JOINT HipLeft
  {
    OFFSET -5.177812 0.804617 -0.162274
    CHANNELS 3 Zrotation Xrotation Yrotation
    JOINT KneeLeft
    {
      OFFSET 6.281823 -28.611005 7.987111
      CHANNELS 3 Zrotation Xrotation Yrotation
      JOINT AnkleLeft
      {
        OFFSET 5.460849 -28.803108 7.504371
        CHANNELS 3 Zrotation Xrotation Yrotation
        JOINT FootLeft
        {
          OFFSET -4.657784 -2.935499 -9.430093
          CHANNELS 3 Zrotation Xrotation Yrotation
          End Site
          {
            OFFSET 0 0 0
          }
        }
      }
    }
  }
  JOINT HipRight
  {
    OFFSET 4.980040 0.766896 -6.494155
    CHANNELS 3 Zrotation Xrotation Yrotation
    JOINT KneeRight
    {
      OFFSET 9.496223 -26.904709 4.215004
      CHANNELS 3 Zrotation Xrotation Yrotation
      JOINT AnkleRight
      {
        OFFSET 5.255448 -30.786736 6.236277
        CHANNELS 3 Zrotation Xrotation Yrotation
        JOINT FootRight
        {
          OFFSET -4.645705 -3.121209 -8.731970
          CHANNELS 3 Zrotation Xrotation Yrotation
          End Site
          {
            OFFSET 0 0 0
          }
        }
      }
    }
  }
}
MOTION
Frames: 11
Frame Time: 0.033333
9.726817 62.275178 332.505213 1.295223 -3.352276 29.285046 -0.039542 -0.494264 -29.209376 0.041228 0.236080 0.058868 -9.526691 -21.032978 -7.006887 0.000000 0.000000 0.000000 -7.198679 -12.690428 0.392256 10.004711 32.790239 -3.637913 10.165301 -9.419625 1.998603 0.425793 14.305262 -0.894115 0.000000 0.000000 0.000000 0.000000 0.000000 0.000000 -53.115284 43.660838 43.509319 -139.660470 24.092665 -45.528325 13.663574 6.709344 -31.124421 -21.101353 -40.704276 -168.137434 0.000000 0.000000 0.000000 0.000000 0.000000 0.000000 0.657229 4.695680 -29.158930 0.426250 -1.065845 -0.110687 0.529333 -0.487437 -0.944593 0.000000 0.000000 0.000000 -0.212754 5.244170 -29.038691 1.449467 -1.124323 -0.154609 -0.004842 1.104316 -1.587160 0.000000 0.000000 0.000000
9.705045 62.248470 332.449480 1.117256 -3.502098 29.302081 -0.355009 -0.550638 -29.236886 -0.153606 0.046210 0.034675 -7.588489 -19.827374 -6.518220 0.000000 0.000000 0.000000 -6.499144 -11.617885 0.494244 9.212246 31.652784 -3.313883 10.069926 -10.061756 1.945888 -1.784181 11.717672 -0.314879 0.000000 0.000000 0.000000 0.000000 0.000000 0.000000 -53.049887 43.846922 44.116470 -139.669398 24.040373 -45.907755 12.017115 2.785687 -37.847588 -14.507954 -37.603213 -152.979032 0.000000 0.000000 0.000000 0.000000 0.000000 0.000000 0.917503 4.714184 -29.180364 0.249745 -2.043604 -0.345702 0.679606 0.479320 -0.751968 0.000000 0.000000 0.000000 0.184279 5.105829 -29.071239 1.216036 -1.045837 -0.166668 0.579658 -0.876708 -0.321602 0.000000 0.000000 0.000000
9.669294 62.237044 332.398700 0.914782 -3.649182 29.324890 -0.620475 -0.552762 -29.272560 -0.339449 -0.054858 0.009591 -5.351192 -18.960954 -6.118172 0.000000 0.000000 0.000000 -6.077379 -11.777888 0.550591 8.799169 31.706420 -3.245882 11.305042 -7.427019 2.090253 -6.168747 3.421063 0.044062 0.000000 0.000000 0.000000 0.000000 0.000000 0.000000 -52.750150 44.029777 44.541051 -139.789462 24.029130 -46.282654 10.249277 1.860754 -39.119245 -13.865400 -33.679473 -146.632927 0.000000 0.000000 0.000000 0.000000 0.000000 0.000000 1.211724 4.663814 -29.208703 0.253983 -2.097525 -0.353250 0.596478 0.579796 -0.746268 0.000000 0.000000 0.000000 1.507507 5.788653 -28.708277 0.631942 -3.382403 -0.846929 1.007619 -1.193290 0.898325 0.000000 0.000000 0.000000
9.638426 62.243784 332.349881 0.726020 -3.778409 29.390512 -0.745342 -0.533745 -29.350435 -0.443244 -0.085794 -0.007176 -3.420201 -18.408134 -5.828876 0.000000 0.000000 0.000000 -5.814449 -11.805645 0.585816 8.437666 31.845971 -3.179908 12.496979 -7.078959 2.266489 -10.950972 -0.528373 0.053064 0.000000 0.000000 0.000000 0.000000 0.000000 0.000000 -52.444541 44.111647 44.705721 -139.992360 23.986628 -46.727876 9.633252 4.690880 -33.144993 -14.667298 -33.386806 -149.912373 0.000000 0.000000 0.000000 0.000000 0.000000 0.000000 1.463898 4.651347 -29.283813 0.188206 -2.152482 -0.381994 0.617463 0.652627 -0.680939 0.000000 0.000000 0.000000 2.336403 6.279217 -28.547220 0.176257 -4.624892 -1.273312 1.464124 -1.651501 1.723772 0.000000 0.000000 0.000000
9.623492 62.242878 332.305087 0.615383 -3.831140 29.417060 -0.689610 -0.492932 -29.384260 -0.421720 -0.026927 -0.009756 -2.869034 -18.327740 -5.740593 0.000000 0.000000 0.000000 -5.843856 -12.049529 0.578130 8.225784 32.281829 -3.167061 14.189651 -7.503496 2.532267 -16.640459 -5.080476 -0.135362 0.000000 0.000000 0.000000 0.000000 0.000000 0.000000 -52.231659 43.973603 44.473136 -140.119185 23.872389 -46.867073 8.739609 3.901549 -34.382443 -14.246288 -31.797880 -147.900300 0.000000 0.000000 0.000000 0.000000 0.000000 0.000000 1.588179 4.644497 -29.317604 0.174598 -2.206706 -0.396208 0.618232 0.710203 -0.629727 0.000000 0.000000 0.000000 3.090344 6.730459 -28.340915 -0.324302 -5.825442 -1.709708 0.189940 2.287327 0.426796 0.000000 0.000000 0.000000
9.601110 62.218981 332.273275 0.505123 -3.852850 29.299086 -0.593934 -0.425410 -29.273618 -0.374338 0.044163 -0.010607 -2.429189 -18.518540 -5.714804 0.000000 0.000000 0.000000 -6.025406 -12.709023 0.550703 8.330359 32.754980 -3.248111 15.076347 -5.693527 2.590472 -19.595199 -8.219775 -0.881807 0.000000 0.000000 0.000000 0.000000 0.000000 0.000000 -51.982282 43.813034 44.157945 -140.244427 23.785780 -46.853089 7.954769 4.227190 -33.442582 -14.334710 -29.432431 -143.811518 0.000000 0.000000 0.000000 0.000000 0.000000 0.000000 1.708600 4.587039 -29.200655 0.099942 -2.197362 -0.415572 0.657013 0.741279 -0.655551 0.000000 0.000000 0.000000 3.660646 7.087344 -28.040974 -0.677174 -6.755199 -2.048062 2.045378 -1.697328 2.357229 0.000000 0.000000 0.000000
9.594949 62.194255 332.240552 0.478102 -3.756044 29.193989 -0.425853 -0.342464 -29.170523 -0.305090 0.128023 -0.004907 -2.760481 -19.374188 -5.898834 0.000000 0.000000 0.000000 -6.325275 -13.480277 0.494622 8.758071 33.462298 -3.430631 15.168721 -4.206166 2.604266 -19.774063 -9.503476 -1.388799 0.000000 0.000000 0.000000 0.000000 0.000000 0.000000 -51.865736 43.606002 43.776465 -140.205661 23.808754 -46.389881 8.770180 5.839852 -30.674626 -15.438745 -30.049133 -145.287792 0.000000 0.000000 0.000000 0.000000 0.000000 0.000000 1.671631 4.483297 -29.096011 0.061028 -2.219533 -0.430694 0.681009 0.812032 -0.654109 0.000000 0.000000 0.000000 3.956493 7.228555 -27.809694 -0.786892 -7.315466 -2.221176 3.232694 -4.350603 3.576805 0.000000 0.000000 0.000000
9.601330 62.184452 332.191985 0.522498 -3.772537 29.074936 -0.252820 -0.334376 -29.048402 -0.198659 0.123156 0.006886 -3.514502 -19.403251 -5.955570 0.000000 0.000000 0.000000 -5.936810 -12.124289 0.504455 7.987001 32.425944 -3.097611 15.143879 -5.074032 2.700534 -17.604416 -8.682209 -0.923412 0.000000 0.000000 0.000000 0.000000 0.000000 0.000000 -52.166832 43.586480 43.750166 -139.934338 23.882121 -45.275159 10.238546 6.116087 -31.167274 -18.108051 -33.039975 -155.079066 0.000000 0.000000 0.000000 0.000000 0.000000 0.000000 1.584784 4.585950 -28.984371 0.238515 -2.314843 -0.398579 0.576385 0.848979 -0.633329 0.000000 0.000000 0.000000 4.100939 7.321416 -27.638982 -0.930585 -7.455136 -2.296791 1.932498 -2.321068 3.909809 0.000000 0.000000 0.000000
9.621995 62.172563 332.137420 0.477097 -3.909865 28.942848 -0.287257 -0.272908 -28.918817 -0.173056 0.096093 0.003309 -2.722819 -18.593181 -5.679673 0.000000 0.000000 0.000000 -6.116123 -12.997663 0.497390 8.588689 34.634965 -3.459815 15.679277 -3.155226 3.020938 -19.322484 -10.749715 -1.910974 0.000000 0.000000 0.000000 0.000000 0.000000 0.000000 -52.303272 43.737364 44.045894 -139.518660 24.047334 -43.705585 11.719037 6.223011 -32.029245 -20.355915 -35.127302 -160.734902 0.000000 0.000000 0.000000 0.000000 0.000000 0.000000 1.587925 4.794064 -28.877554 0.489379 -2.431790 -0.349659 0.459894 0.892880 -0.614862 0.000000 0.000000 0.000000 4.198512 7.348415 -27.532022 -0.994082 -7.328340 -2.277889 3.953902 -5.254702 2.844093 0.000000 0.000000 0.000000
9.624711 62.175595 332.072810 0.332957 -4.114821 29.031372 -0.402650 -0.219436 -29.016176 -0.196297 0.067956 -0.009020 -1.206415 -17.314747 -5.266395 0.000000 0.000000 0.000000 -5.211982 -11.494808 0.550950 8.005135 33.727712 -3.191050 15.523352 -3.067884 3.062621 -16.906440 -8.125580 -1.531014 0.000000 0.000000 0.000000 0.000000 0.000000 0.000000 -52.353413 43.951843 44.501160 -138.993369 24.234240 -41.908501 14.035076 7.990050 -30.031400 -26.785661 -36.143929 -171.631854 0.000000 0.000000 0.000000 0.000000 0.000000 0.000000 1.760637 5.017361 -28.989974 0.789345 -2.539604 -0.284730 0.269492 0.899127 -0.605641 0.000000 0.000000 0.000000 4.052631 6.986578 -27.819661 -0.848481 -6.444431 -1.990161 4.565442 -5.630645 0.777612 0.000000 0.000000 0.000000
9.622406 62.185731 331.997596 0.074234 -4.371211 29.232548 -0.584833 -0.150388 -29.233864 -0.268191 0.019714 -0.030777 1.263717 -15.654307 -4.760844 0.000000 0.000000 0.000000 -4.455176 -10.612354 0.603485 7.876137 32.680785 -3.057672 15.304339 0.212024 2.768368 -14.493588 -7.904466 -1.769829 0.000000 0.000000 0.000000 0.000000 0.000000 0.000000 -52.330136 44.235569 45.143128 -138.375719 24.481885 -40.044961 14.319717 5.306707 -35.408641 -25.439915 -37.206799 -169.070314 0.000000 0.000000 0.000000 0.000000 0.000000 0.000000 2.095454 5.453142 -29.204942 1.240056 -3.079391 -0.258823 0.016709 1.129755 -0.581500 0.000000 0.000000 0.000000 4.382560 6.874093 -28.100301 -0.945722 -6.287753 -1.951180 6.941561 -10.255394 2.401203 0.000000 0.000000 0.000000
